<svg width="349mm" height="273mm" viewBox="0 0 349 273" xmlns="http://www.w3.org/2000/svg" version="1.1" preserveAspectRatio="xMidYMid meet"><g id="svgGroup" stroke-linecap="round" fill-rule="evenodd" font-size="9pt" stroke="#000" stroke-width="0.25mm" fill="none" style="stroke:#000;stroke-width:0.25mm;fill:none"><path d="M 0 207 L 0 213.75 L 3 213.75 L 3 224.25 L 0 224.25 L 0 234.75 L 3 234.75 L 3 245.25 L 0 245.25 L 0 255.75 L 3 255.75 L 3 266.25 L 0 266.25 L 0 273 L 15.25 273 L 15.25 270 L 25.75 270 L 25.75 273 L 36.25 273 L 36.25 270 L 46.75 270 L 46.75 273 L 57.25 273 L 57.25 270 L 67.75 270 L 67.75 273 L 78.25 273 L 78.25 270 L 88.75 270 L 88.75 273 L 99.25 273 L 104 273 L 104 266.25 L 101 266.25 L 101 255.75 L 104 255.75 L 104 245.25 L 101 245.25 L 101 234.75 L 104 234.75 L 104 224.25 L 101 224.25 L 101 213.75 L 104 213.75 L 104 207 L 88.75 207 L 88.75 210 L 78.25 210 L 78.25 207 L 67.75 207 L 67.75 210 L 57.25 210 L 57.25 207 L 46.75 207 L 46.75 210 L 36.25 210 L 36.25 207 L 25.75 207 L 25.75 210 L 15.25 210 L 15.25 207 L 4.75 207 L 0 207 Z" id="front_outsideCutPath" stroke="#000000" stroke-width="0.1" style="stroke:#000000;stroke-width:0.1" vector-effect="non-scaling-stroke"/><path d="M 110 207 L 110 213.75 L 107 213.75 L 107 224.25 L 110 224.25 L 110 234.75 L 107 234.75 L 107 245.25 L 110 245.25 L 110 255.75 L 107 255.75 L 107 266.25 L 110 266.25 L 110 273 L 116.75 273 L 116.75 270 L 127.25 270 L 127.25 273 L 137.75 273 L 137.75 270 L 148.25 270 L 148.25 273 L 158.75 273 L 158.75 270 L 169.25 270 L 169.25 273 L 179.75 273 L 179.75 270 L 190.25 270 L 190.25 273 L 200.75 273 L 200.75 270 L 211.25 270 L 211.25 273 L 221.75 273 L 221.75 270 L 232.25 270 L 232.25 273 L 239 273 L 239 266.25 L 242 266.25 L 242 255.75 L 239 255.75 L 239 245.25 L 242 245.25 L 242 234.75 L 239 234.75 L 239 224.25 L 242 224.25 L 242 213.75 L 239 213.75 L 239 207 L 232.25 207 L 232.25 210 L 221.75 210 L 221.75 207 L 211.25 207 L 211.25 210 L 200.75 210 L 200.75 207 L 190.25 207 L 190.25 210 L 179.75 210 L 179.75 207 L 169.25 207 L 169.25 210 L 158.75 210 L 158.75 207 L 148.25 207 L 148.25 210 L 137.75 210 L 137.75 207 L 127.25 207 L 127.25 210 L 116.75 210 L 116.75 207 L 110 207 Z" id="left_outsideCutPath" stroke="#000000" stroke-width="0.1" style="stroke:#000000;stroke-width:0.1" vector-effect="non-scaling-stroke"/><path d="M 248 141 L 248 147.75 L 245 147.75 L 245 158.25 L 248 158.25 L 248 168.75 L 245 168.75 L 245 179.25 L 248 179.25 L 248 189.75 L 245 189.75 L 245 200.25 L 248 200.25 L 248 210.75 L 245 210.75 L 245 221.25 L 248 221.25 L 248 231.75 L 245 231.75 L 245 242.25 L 248 242.25 L 248 252.75 L 245 252.75 L 245 263.25 L 248 263.25 L 248 270 L 260.25 270 L 260.25 273 L 270.75 273 L 270.75 270 L 281.25 270 L 281.25 273 L 291.75 273 L 291.75 270 L 302.25 270 L 302.25 273 L 312.75 273 L 312.75 270 L 323.25 270 L 323.25 273 L 333.75 273 L 333.75 270 L 344.25 270 L 346 270 L 346 263.25 L 349 263.25 L 349 252.75 L 346 252.75 L 346 242.25 L 349 242.25 L 349 231.75 L 346 231.75 L 346 221.25 L 349 221.25 L 349 210.75 L 346 210.75 L 346 200.25 L 349 200.25 L 349 189.75 L 346 189.75 L 346 179.25 L 349 179.25 L 349 168.75 L 346 168.75 L 346 158.25 L 349 158.25 L 349 147.75 L 346 147.75 L 346 141 L 333.75 141 L 333.75 138 L 323.25 138 L 323.25 141 L 312.75 141 L 312.75 138 L 302.25 138 L 302.25 141 L 291.75 141 L 291.75 138 L 281.25 138 L 281.25 141 L 270.75 141 L 270.75 138 L 260.25 138 L 260.25 141 L 249.75 141 L 248 141 Z" id="top_outsideCutPath" stroke="#000000" stroke-width="0.1" style="stroke:#000000;stroke-width:0.1" vector-effect="non-scaling-stroke"/><path d="M 0 138 L 0 144.75 L 3 144.75 L 3 155.25 L 0 155.25 L 0 165.75 L 3 165.75 L 3 176.25 L 0 176.25 L 0 186.75 L 3 186.75 L 3 197.25 L 0 197.25 L 0 204 L 15.25 204 L 15.25 201 L 25.75 201 L 25.75 204 L 36.25 204 L 36.25 201 L 46.75 201 L 46.75 204 L 57.25 204 L 57.25 201 L 67.75 201 L 67.75 204 L 78.25 204 L 78.25 201 L 88.75 201 L 88.75 204 L 99.25 204 L 104 204 L 104 197.25 L 101 197.25 L 101 186.75 L 104 186.75 L 104 176.25 L 101 176.25 L 101 165.75 L 104 165.75 L 104 155.25 L 101 155.25 L 101 144.75 L 104 144.75 L 104 138 L 88.75 138 L 88.75 141 L 78.25 141 L 78.25 138 L 67.75 138 L 67.75 141 L 57.25 141 L 57.25 138 L 46.75 138 L 46.75 141 L 36.25 141 L 36.25 138 L 25.75 138 L 25.75 141 L 15.25 141 L 15.25 138 L 4.75 138 L 0 138 Z" id="back_outsideCutPath" stroke="#000000" stroke-width="0.1" style="stroke:#000000;stroke-width:0.1" vector-effect="non-scaling-stroke"/><path d="M 110 138 L 110 144.75 L 107 144.75 L 107 155.25 L 110 155.25 L 110 165.75 L 107 165.75 L 107 176.25 L 110 176.25 L 110 186.75 L 107 186.75 L 107 197.25 L 110 197.25 L 110 204 L 116.75 204 L 116.75 201 L 127.25 201 L 127.25 204 L 137.75 204 L 137.75 201 L 148.25 201 L 148.25 204 L 158.75 204 L 158.75 201 L 169.25 201 L 169.25 204 L 179.75 204 L 179.75 201 L 190.25 201 L 190.25 204 L 200.75 204 L 200.75 201 L 211.25 201 L 211.25 204 L 221.75 204 L 221.75 201 L 232.25 201 L 232.25 204 L 239 204 L 239 197.25 L 242 197.25 L 242 186.75 L 239 186.75 L 239 176.25 L 242 176.25 L 242 165.75 L 239 165.75 L 239 155.25 L 242 155.25 L 242 144.75 L 239 144.75 L 239 138 L 232.25 138 L 232.25 141 L 221.75 141 L 221.75 138 L 211.25 138 L 211.25 141 L 200.75 141 L 200.75 138 L 190.25 138 L 190.25 141 L 179.75 141 L 179.75 138 L 169.25 138 L 169.25 141 L 158.75 141 L 158.75 138 L 148.25 138 L 148.25 141 L 137.75 141 L 137.75 138 L 127.25 138 L 127.25 141 L 116.75 141 L 116.75 138 L 110 138 Z" id="right_outsideCutPath" stroke="#000000" stroke-width="0.1" style="stroke:#000000;stroke-width:0.1" vector-effect="non-scaling-stroke"/><path d="M 248 3 L 248 9.75 L 245 9.75 L 245 20.25 L 248 20.25 L 248 30.75 L 245 30.75 L 245 41.25 L 248 41.25 L 248 51.75 L 245 51.75 L 245 62.25 L 248 62.25 L 248 72.75 L 245 72.75 L 245 83.25 L 248 83.25 L 248 93.75 L 245 93.75 L 245 104.25 L 248 104.25 L 248 114.75 L 245 114.75 L 245 125.25 L 248 125.25 L 248 132 L 260.25 132 L 260.25 135 L 270.75 135 L 270.75 132 L 281.25 132 L 281.25 135 L 291.75 135 L 291.75 132 L 302.25 132 L 302.25 135 L 312.75 135 L 312.75 132 L 323.25 132 L 323.25 135 L 333.75 135 L 333.75 132 L 344.25 132 L 346 132 L 346 125.25 L 349 125.25 L 349 114.75 L 346 114.75 L 346 104.25 L 349 104.25 L 349 93.75 L 346 93.75 L 346 83.25 L 349 83.25 L 349 72.75 L 346 72.75 L 346 62.25 L 349 62.25 L 349 51.75 L 346 51.75 L 346 41.25 L 349 41.25 L 349 30.75 L 346 30.75 L 346 20.25 L 349 20.25 L 349 9.75 L 346 9.75 L 346 3 L 333.75 3 L 333.75 0 L 323.25 0 L 323.25 3 L 312.75 3 L 312.75 0 L 302.25 0 L 302.25 3 L 291.75 3 L 291.75 0 L 281.25 0 L 281.25 3 L 270.75 3 L 270.75 0 L 260.25 0 L 260.25 3 L 249.75 3 L 248 3 Z" id="bottom_outsideCutPath" stroke="#000000" stroke-width="0.1" style="stroke:#000000;stroke-width:0.1" vector-effect="non-scaling-stroke"/></g></svg>