<svg width="349mm" height="273mm" viewBox="0 0 349 273" xmlns="http://www.w3.org/2000/svg" version="1.1" preserveAspectRatio="xMidYMid meet"><g id="svgGroup" stroke-linecap="round" fill-rule="evenodd" font-size="9pt" stroke="#000" stroke-width="0.25mm" fill="none" style="stroke:#000;stroke-width:0.25mm;fill:none"><path d="M 0 207 L 0 215.25 L 3 215.25 L 3 222.125 L 5.75 222.125 L 5.75 220.875 L 8 220.875 L 8 222.125 L 10.25 222.125 L 10.25 224.875 L 8 224.875 L 8 226.125 L 5.75 226.125 L 5.75 224.875 L 3 224.875 L 3 231.75 L 0 231.75 L 0 248.25 L 3 248.25 L 3 255.125 L 5.75 255.125 L 5.75 253.875 L 8 253.875 L 8 255.125 L 10.25 255.125 L 10.25 257.875 L 8 257.875 L 8 259.125 L 5.75 259.125 L 5.75 257.875 L 3 257.875 L 3 264.75 L 0 264.75 L 0 273 L 13 273 L 13 270 L 24.625 270 L 24.625 267.25 L 23.375 267.25 L 23.375 265 L 24.625 265 L 24.625 262.75 L 27.375 262.75 L 27.375 265 L 28.625 265 L 28.625 267.25 L 27.375 267.25 L 27.375 270 L 39 270 L 39 273 L 65 273 L 65 270 L 76.625 270 L 76.625 267.25 L 75.375 267.25 L 75.375 265 L 76.625 265 L 76.625 262.75 L 79.375 262.75 L 79.375 265 L 80.625 265 L 80.625 267.25 L 79.375 267.25 L 79.375 270 L 91 270 L 91 273 L 104 273 L 104 264.75 L 101 264.75 L 101 257.875 L 98.25 257.875 L 98.25 259.125 L 96 259.125 L 96 257.875 L 93.75 257.875 L 93.75 255.125 L 96 255.125 L 96 253.875 L 98.25 253.875 L 98.25 255.125 L 101 255.125 L 101 248.25 L 104 248.25 L 104 231.75 L 101 231.75 L 101 224.875 L 98.25 224.875 L 98.25 226.125 L 96 226.125 L 96 224.875 L 93.75 224.875 L 93.75 222.125 L 96 222.125 L 96 220.875 L 98.25 220.875 L 98.25 222.125 L 101 222.125 L 101 215.25 L 104 215.25 L 104 207 L 91 207 L 91 210 L 79.375 210 L 79.375 212.75 L 80.625 212.75 L 80.625 215 L 79.375 215 L 79.375 217.25 L 76.625 217.25 L 76.625 215 L 75.375 215 L 75.375 212.75 L 76.625 212.75 L 76.625 210 L 65 210 L 65 207 L 39 207 L 39 210 L 27.375 210 L 27.375 212.75 L 28.625 212.75 L 28.625 215 L 27.375 215 L 27.375 217.25 L 24.625 217.25 L 24.625 215 L 23.375 215 L 23.375 212.75 L 24.625 212.75 L 24.625 210 L 13 210 L 13 207 L 0 207 Z" id="front_outsideCutPath" stroke="#000000" stroke-width="0.1" style="stroke:#000000;stroke-width:0.1" vector-effect="non-scaling-stroke"/><path d="M 110 207 L 110 215.25 L 107 215.25 L 107 222.125 L 109.75 222.125 L 109.75 223.5 L 109.75 224.875 L 107 224.875 L 107 231.75 L 110 231.75 L 110 248.25 L 107 248.25 L 107 255.125 L 109.75 255.125 L 109.75 256.5 L 109.75 257.875 L 107 257.875 L 107 264.75 L 110 264.75 L 110 273 L 123.875 273 L 123.875 270 L 139.375 270 L 139.375 267.25 L 138.125 267.25 L 138.125 265 L 139.375 265 L 139.375 262.75 L 142.125 262.75 L 142.125 265 L 143.375 265 L 143.375 267.25 L 142.125 267.25 L 142.125 270 L 157.625 270 L 157.625 273 L 191.375 273 L 191.375 270 L 206.875 270 L 206.875 267.25 L 205.625 267.25 L 205.625 265 L 206.875 265 L 206.875 262.75 L 209.625 262.75 L 209.625 265 L 210.875 265 L 210.875 267.25 L 209.625 267.25 L 209.625 270 L 225.125 270 L 225.125 273 L 239 273 L 239 264.75 L 242 264.75 L 242 257.875 L 239.25 257.875 L 239.25 256.5 L 239.25 255.125 L 242 255.125 L 242 248.25 L 239 248.25 L 239 231.75 L 242 231.75 L 242 224.875 L 239.25 224.875 L 239.25 223.5 L 239.25 222.125 L 242 222.125 L 242 215.25 L 239 215.25 L 239 207 L 225.125 207 L 225.125 210 L 209.625 210 L 209.625 212.75 L 210.875 212.75 L 210.875 215 L 209.625 215 L 209.625 217.25 L 206.875 217.25 L 206.875 215 L 205.625 215 L 205.625 212.75 L 206.875 212.75 L 206.875 210 L 191.375 210 L 191.375 207 L 157.625 207 L 157.625 210 L 142.125 210 L 142.125 212.75 L 143.375 212.75 L 143.375 215 L 142.125 215 L 142.125 217.25 L 139.375 217.25 L 139.375 215 L 138.125 215 L 138.125 212.75 L 139.375 212.75 L 139.375 210 L 123.875 210 L 123.875 207 L 110 207 Z" id="left_outsideCutPath" stroke="#000000" stroke-width="0.1" style="stroke:#000000;stroke-width:0.1" vector-effect="non-scaling-stroke"/><path d="M 248 141 L 248 154.875 L 245 154.875 L 245 170.375 L 247.75 170.375 L 247.75 171.75 L 247.75 173.125 L 245 173.125 L 245 188.625 L 248 188.625 L 248 222.375 L 245 222.375 L 245 237.875 L 247.75 237.875 L 247.75 239.25 L 247.75 240.625 L 245 240.625 L 245 256.125 L 248 256.125 L 248 270 L 258 270 L 258 273 L 269.625 273 L 269.625 270.25 L 271 270.25 L 272.375 270.25 L 272.375 273 L 284 273 L 284 270 L 310 270 L 310 273 L 321.625 273 L 321.625 270.25 L 323 270.25 L 324.375 270.25 L 324.375 273 L 336 273 L 336 270 L 346 270 L 346 256.125 L 349 256.125 L 349 240.625 L 346.25 240.625 L 346.25 239.25 L 346.25 237.875 L 349 237.875 L 349 222.375 L 346 222.375 L 346 188.625 L 349 188.625 L 349 173.125 L 346.25 173.125 L 346.25 171.75 L 346.25 170.375 L 349 170.375 L 349 154.875 L 346 154.875 L 346 141 L 336 141 L 336 138 L 324.375 138 L 324.375 140.75 L 323 140.75 L 321.625 140.75 L 321.625 138 L 310 138 L 310 141 L 284 141 L 284 138 L 272.375 138 L 272.375 140.75 L 271 140.75 L 269.625 140.75 L 269.625 138 L 258 138 L 258 141 L 248 141 Z" id="top_outsideCutPath" stroke="#000000" stroke-width="0.1" style="stroke:#000000;stroke-width:0.1" vector-effect="non-scaling-stroke"/><path d="M 0 138 L 0 146.25 L 3 146.25 L 3 153.125 L 5.75 153.125 L 5.75 151.875 L 8 151.875 L 8 153.125 L 10.25 153.125 L 10.25 155.875 L 8 155.875 L 8 157.125 L 5.75 157.125 L 5.75 155.875 L 3 155.875 L 3 162.75 L 0 162.75 L 0 179.25 L 3 179.25 L 3 186.125 L 5.75 186.125 L 5.75 184.875 L 8 184.875 L 8 186.125 L 10.25 186.125 L 10.25 188.875 L 8 188.875 L 8 190.125 L 5.75 190.125 L 5.75 188.875 L 3 188.875 L 3 195.75 L 0 195.75 L 0 204 L 13 204 L 13 201 L 24.625 201 L 24.625 198.25 L 23.375 198.25 L 23.375 196 L 24.625 196 L 24.625 193.75 L 27.375 193.75 L 27.375 196 L 28.625 196 L 28.625 198.25 L 27.375 198.25 L 27.375 201 L 39 201 L 39 204 L 65 204 L 65 201 L 76.625 201 L 76.625 198.25 L 75.375 198.25 L 75.375 196 L 76.625 196 L 76.625 193.75 L 79.375 193.75 L 79.375 196 L 80.625 196 L 80.625 198.25 L 79.375 198.25 L 79.375 201 L 91 201 L 91 204 L 104 204 L 104 195.75 L 101 195.75 L 101 188.875 L 98.25 188.875 L 98.25 190.125 L 96 190.125 L 96 188.875 L 93.75 188.875 L 93.75 186.125 L 96 186.125 L 96 184.875 L 98.25 184.875 L 98.25 186.125 L 101 186.125 L 101 179.25 L 104 179.25 L 104 162.75 L 101 162.75 L 101 155.875 L 98.25 155.875 L 98.25 157.125 L 96 157.125 L 96 155.875 L 93.75 155.875 L 93.75 153.125 L 96 153.125 L 96 151.875 L 98.25 151.875 L 98.25 153.125 L 101 153.125 L 101 146.25 L 104 146.25 L 104 138 L 91 138 L 91 141 L 79.375 141 L 79.375 143.75 L 80.625 143.75 L 80.625 146 L 79.375 146 L 79.375 148.25 L 76.625 148.25 L 76.625 146 L 75.375 146 L 75.375 143.75 L 76.625 143.75 L 76.625 141 L 65 141 L 65 138 L 39 138 L 39 141 L 27.375 141 L 27.375 143.75 L 28.625 143.75 L 28.625 146 L 27.375 146 L 27.375 148.25 L 24.625 148.25 L 24.625 146 L 23.375 146 L 23.375 143.75 L 24.625 143.75 L 24.625 141 L 13 141 L 13 138 L 0 138 Z" id="back_outsideCutPath" stroke="#000000" stroke-width="0.1" style="stroke:#000000;stroke-width:0.1" vector-effect="non-scaling-stroke"/><path d="M 110 138 L 110 146.25 L 107 146.25 L 107 153.125 L 109.75 153.125 L 109.75 154.5 L 109.75 155.875 L 107 155.875 L 107 162.75 L 110 162.75 L 110 179.25 L 107 179.25 L 107 186.125 L 109.75 186.125 L 109.75 187.5 L 109.75 188.875 L 107 188.875 L 107 195.75 L 110 195.75 L 110 204 L 123.875 204 L 123.875 201 L 139.375 201 L 139.375 198.25 L 138.125 198.25 L 138.125 196 L 139.375 196 L 139.375 193.75 L 142.125 193.75 L 142.125 196 L 143.375 196 L 143.375 198.25 L 142.125 198.25 L 142.125 201 L 157.625 201 L 157.625 204 L 191.375 204 L 191.375 201 L 206.875 201 L 206.875 198.25 L 205.625 198.25 L 205.625 196 L 206.875 196 L 206.875 193.75 L 209.625 193.75 L 209.625 196 L 210.875 196 L 210.875 198.25 L 209.625 198.25 L 209.625 201 L 225.125 201 L 225.125 204 L 239 204 L 239 195.75 L 242 195.75 L 242 188.875 L 239.25 188.875 L 239.25 187.5 L 239.25 186.125 L 242 186.125 L 242 179.25 L 239 179.25 L 239 162.75 L 242 162.75 L 242 155.875 L 239.25 155.875 L 239.25 154.5 L 239.25 153.125 L 242 153.125 L 242 146.25 L 239 146.25 L 239 138 L 225.125 138 L 225.125 141 L 209.625 141 L 209.625 143.75 L 210.875 143.75 L 210.875 146 L 209.625 146 L 209.625 148.25 L 206.875 148.25 L 206.875 146 L 205.625 146 L 205.625 143.75 L 206.875 143.75 L 206.875 141 L 191.375 141 L 191.375 138 L 157.625 138 L 157.625 141 L 142.125 141 L 142.125 143.75 L 143.375 143.75 L 143.375 146 L 142.125 146 L 142.125 148.25 L 139.375 148.25 L 139.375 146 L 138.125 146 L 138.125 143.75 L 139.375 143.75 L 139.375 141 L 123.875 141 L 123.875 138 L 110 138 Z" id="right_outsideCutPath" stroke="#000000" stroke-width="0.1" style="stroke:#000000;stroke-width:0.1" vector-effect="non-scaling-stroke"/><path d="M 248 3 L 248 16.875 L 245 16.875 L 245 32.375 L 247.75 32.375 L 247.75 33.75 L 247.75 35.125 L 245 35.125 L 245 50.625 L 248 50.625 L 248 84.375 L 245 84.375 L 245 99.875 L 247.75 99.875 L 247.75 101.25 L 247.75 102.625 L 245 102.625 L 245 118.125 L 248 118.125 L 248 132 L 258 132 L 258 135 L 269.625 135 L 269.625 132.25 L 271 132.25 L 272.375 132.25 L 272.375 135 L 284 135 L 284 132 L 310 132 L 310 135 L 321.625 135 L 321.625 132.25 L 323 132.25 L 324.375 132.25 L 324.375 135 L 336 135 L 336 132 L 346 132 L 346 118.125 L 349 118.125 L 349 102.625 L 346.25 102.625 L 346.25 101.25 L 346.25 99.875 L 349 99.875 L 349 84.375 L 346 84.375 L 346 50.625 L 349 50.625 L 349 35.125 L 346.25 35.125 L 346.25 33.75 L 346.25 32.375 L 349 32.375 L 349 16.875 L 346 16.875 L 346 3 L 336 3 L 336 0 L 324.375 0 L 324.375 2.75 L 323 2.75 L 321.625 2.75 L 321.625 0 L 310 0 L 310 3 L 284 3 L 284 0 L 272.375 0 L 272.375 2.75 L 271 2.75 L 269.625 2.75 L 269.625 0 L 258 0 L 258 3 L 248 3 Z" id="bottom_outsideCutPath" stroke="#000000" stroke-width="0.1" style="stroke:#000000;stroke-width:0.1" vector-effect="non-scaling-stroke"/></g></svg>